<svg width="100" height="100" viewBox="0 0 100 100" fill="none" xmlns="http://www.w3.org/2000/svg">
<path d="M50 0C22.3075 0 0 22.3075 0 50C0 77.6925 22.3075 100 50 100C77.69 100 100 77.6925 100 50C100 22.3075 77.69 0 50 0Z" fill="url(#paint0_linear_21_558)"/>
<path opacity="0.05" d="M43.0575 29.8452C56.9425 29.8452 71.5575 32.7702 82.52 38.9802C83.98 39.7127 85.075 41.1727 85.075 43.3652C84.7125 45.9227 82.8825 47.7527 80.3275 47.7527C79.2325 47.7527 78.865 47.3877 77.77 47.0252C69 41.9077 55.8475 38.9827 43.0575 38.9827C36.48 38.9827 29.9025 39.7152 24.0575 41.1752C23.325 41.1752 22.595 41.5402 21.5 41.5402C21.3125 41.5677 21.1275 41.5802 20.9475 41.5802C18.685 41.5802 17.115 39.5277 17.115 37.1552C17.115 34.5977 18.5775 33.1377 20.4025 32.7702C27.345 30.5777 34.6525 29.8452 43.0575 29.8452ZM41.96 45.9227C54.385 45.9227 66.4425 48.8477 75.9425 54.6902C77.4025 55.4177 78.135 56.8827 78.135 58.3427C78.135 60.5377 76.6725 62.3627 74.48 62.3627C73.385 62.3627 72.655 62.0027 71.9225 61.6352C64.2525 56.8852 53.6525 53.9577 41.5975 53.9577C35.75 53.9577 30.27 54.6902 26.25 55.7902C25.1525 56.1502 24.7875 56.1502 24.0575 56.1502C21.865 56.1502 20.4025 54.3252 20.4025 52.4977C20.4025 50.3052 21.5 49.2077 23.325 48.4802C28.805 47.0202 34.2875 45.9227 41.96 45.9227ZM43.055 61.6352C53.2875 61.6352 62.7875 64.1877 70.825 68.9452C71.92 69.6727 72.6525 70.4052 72.6525 72.2302C72.2875 73.6952 70.825 74.7877 69.365 74.7877C68.635 74.7877 67.9025 74.4252 67.1725 74.0577C60.23 70.0402 51.825 67.8477 42.6925 67.8477C37.575 67.8477 32.46 68.5752 27.71 69.6727C26.98 69.6727 25.8825 70.0377 25.5175 70.0377C23.69 70.0377 22.595 68.5727 22.595 67.1127C22.595 65.2877 23.69 64.1877 25.1525 63.8277C30.9975 62.3627 36.845 61.6352 43.055 61.6352ZM43.0575 27.3452C33.585 27.3452 26.3925 28.2727 19.765 30.3502C16.63 31.0477 14.615 33.7027 14.615 37.1552C14.615 41.0377 17.395 44.0802 20.9475 44.0802C21.185 44.0802 21.4275 44.0677 21.675 44.0377C22.4725 44.0202 23.11 43.8752 23.585 43.7702C23.755 43.7327 23.91 43.6827 24.0675 43.6752H24.375L24.665 43.6002C30.2125 42.2152 36.5725 41.4827 43.06 41.4827C55.7425 41.4827 68.2475 44.3627 76.5125 49.1852L76.7375 49.3177L76.985 49.4002C77.2575 49.4902 77.4725 49.5827 77.6675 49.6627C78.295 49.9252 79.075 50.2527 80.33 50.2527C84.0375 50.2527 87.0075 47.5652 87.5525 43.7152L87.5775 43.5402V43.3627C87.5775 40.4352 86.1675 38.0377 83.705 36.7752C73.0925 30.7827 58.2825 27.3452 43.0575 27.3452ZM41.96 43.4227C33.7325 43.4227 27.8325 44.6927 22.6825 46.0652L22.5375 46.1027L22.4 46.1577C19.415 47.3477 17.9025 49.4802 17.9025 52.4977C17.9025 55.8902 20.6625 58.6502 24.0575 58.6502C24.985 58.6502 25.6225 58.6277 27.03 58.1652C30.96 57.0927 36.315 56.4577 41.5975 56.4577C52.7 56.4577 63.0025 59.0502 70.605 63.7602L70.7 63.8202L70.8 63.8702C71.635 64.2902 72.78 64.8627 74.4775 64.8627C77.9875 64.8627 80.6325 62.0602 80.6325 58.3427C80.6325 55.8527 79.3075 53.6277 77.165 52.5077C67.5975 46.6477 55.0975 43.4227 41.96 43.4227ZM43.055 59.1352C36.6875 59.1352 30.6325 59.8777 24.545 61.4027C21.805 62.0777 20.095 64.2652 20.095 67.1127C20.095 70.1552 22.4775 72.5377 25.5175 72.5377C25.9475 72.5377 26.3525 72.4452 26.8225 72.3402C27.075 72.2827 27.5425 72.1777 27.715 72.1727L27.9675 72.1652L28.2725 72.1077C33.33 70.9402 38.18 70.3477 42.6925 70.3477C51.2475 70.3477 59.28 72.3777 65.92 76.2227L65.9825 76.2602L66.0475 76.2927C66.8825 76.7127 68.0275 77.2902 69.365 77.2902C71.99 77.2902 74.445 75.3752 75.0775 72.8377L75.1525 72.5402V72.2327C75.1525 69.2277 73.665 67.8327 72.2075 66.8652L72.1525 66.8302L72.0975 66.7977C63.635 61.7827 53.59 59.1352 43.055 59.1352Z" fill="black"/>
<path opacity="0.07" d="M43.0575 29.8447C56.9425 29.8447 71.5575 32.7697 82.52 38.9797C83.98 39.7122 85.075 41.1722 85.075 43.3647C84.7125 45.9222 82.8825 47.7522 80.3275 47.7522C79.2325 47.7522 78.865 47.3872 77.77 47.0247C69 41.9072 55.8475 38.9822 43.0575 38.9822C36.48 38.9822 29.9025 39.7147 24.0575 41.1747C23.325 41.1747 22.595 41.5397 21.5 41.5397C21.3125 41.5672 21.1275 41.5797 20.9475 41.5797C18.685 41.5797 17.115 39.5272 17.115 37.1547C17.115 34.5972 18.5775 33.1372 20.4025 32.7697C27.345 30.5772 34.6525 29.8447 43.0575 29.8447ZM41.96 45.9222C54.385 45.9222 66.4425 48.8472 75.9425 54.6897C77.4025 55.4172 78.135 56.8822 78.135 58.3422C78.135 60.5372 76.6725 62.3622 74.48 62.3622C73.385 62.3622 72.655 62.0022 71.9225 61.6347C64.2525 56.8847 53.6525 53.9572 41.5975 53.9572C35.75 53.9572 30.27 54.6897 26.25 55.7897C25.1525 56.1497 24.7875 56.1497 24.0575 56.1497C21.865 56.1497 20.4025 54.3247 20.4025 52.4972C20.4025 50.3047 21.5 49.2072 23.325 48.4797C28.805 47.0197 34.2875 45.9222 41.96 45.9222ZM43.055 61.6347C53.2875 61.6347 62.7875 64.1872 70.825 68.9447C71.92 69.6722 72.6525 70.4047 72.6525 72.2297C72.2875 73.6947 70.825 74.7872 69.365 74.7872C68.635 74.7872 67.9025 74.4247 67.1725 74.0572C60.23 70.0397 51.825 67.8472 42.6925 67.8472C37.575 67.8472 32.46 68.5747 27.71 69.6722C26.98 69.6722 25.8825 70.0372 25.5175 70.0372C23.69 70.0372 22.595 68.5722 22.595 67.1122C22.595 65.2872 23.69 64.1872 25.1525 63.8272C30.9975 62.3622 36.845 61.6347 43.055 61.6347ZM43.0575 28.5947C33.69 28.5947 26.6025 29.5097 20.0875 31.5597C17.4825 32.1147 15.865 34.2547 15.865 37.1547C15.865 40.3372 18.0975 42.8297 20.9475 42.8297C21.1575 42.8297 21.37 42.8172 21.59 42.7897C22.29 42.7797 22.855 42.6522 23.3125 42.5497C23.61 42.4822 23.8675 42.4247 24.06 42.4247H24.2125L24.3625 42.3872C30.0075 40.9772 36.4725 40.2322 43.06 40.2322C55.955 40.2322 68.695 43.1747 77.1425 48.1047L77.255 48.1697L77.38 48.2097C77.6875 48.3122 77.9325 48.4147 78.1525 48.5072C78.73 48.7497 79.3275 48.9997 80.33 48.9997C83.4475 48.9997 85.8525 46.8047 86.315 43.5372L86.3275 43.4497V43.3622C86.3275 40.8997 85.145 38.8947 83.0825 37.8597C72.705 31.9847 58.0975 28.5947 43.0575 28.5947ZM41.96 44.6722C34.325 44.6722 28.86 45.7122 23.0025 47.2722L22.93 47.2922L22.86 47.3197C21.2675 47.9547 19.15 49.1822 19.15 52.4972C19.15 54.8547 21.025 57.3997 24.055 57.3997C24.905 57.3997 25.4075 57.3797 26.6375 56.9772C30.73 55.8597 36.205 55.2072 41.595 55.2072C52.9275 55.2072 63.4625 57.8672 71.2625 62.6972C72.125 63.1347 73.075 63.6122 74.4775 63.6122C77.275 63.6122 79.3825 61.3472 79.3825 58.3422C79.3825 56.2847 78.2775 54.4572 76.4975 53.5697C67.21 47.8522 54.91 44.6722 41.96 44.6722ZM43.055 60.3847C36.79 60.3847 30.835 61.1147 24.8475 62.6147C22.6875 63.1472 21.345 64.8697 21.345 67.1122C21.345 69.1647 22.905 71.2872 25.5175 71.2872C25.8075 71.2872 26.1325 71.2147 26.545 71.1197C26.915 71.0372 27.4225 70.9222 27.71 70.9222H27.8525L27.9925 70.8897C33.1425 69.6997 38.0875 69.0972 42.6925 69.0972C51.4675 69.0972 59.715 71.1872 66.5475 75.1397C67.375 75.5597 68.3275 76.0372 69.365 76.0372C71.4325 76.0372 73.3675 74.5297 73.865 72.5322L73.9025 72.3822V72.2297C73.9025 69.6997 72.67 68.6697 71.5175 67.9047C63.19 62.9722 53.3675 60.3847 43.055 60.3847Z" fill="black"/>
<path d="M69.365 74.7872C68.635 74.7872 67.9025 74.4247 67.1725 74.0572C60.23 70.0397 51.825 67.8472 42.6925 67.8472C37.575 67.8472 32.46 68.5747 27.71 69.6722C26.98 69.6722 25.8825 70.0372 25.5175 70.0372C23.69 70.0372 22.595 68.5722 22.595 67.1122C22.595 65.2872 23.69 64.1872 25.1525 63.8272C30.9975 62.3622 36.845 61.6347 43.055 61.6347C53.2875 61.6347 62.7875 64.1872 70.825 68.9447C71.92 69.6722 72.6525 70.4047 72.6525 72.2297C72.2875 73.6947 70.825 74.7872 69.365 74.7872ZM74.48 62.3622C73.385 62.3622 72.655 62.0022 71.9225 61.6347C64.2525 56.8847 53.6525 53.9572 41.5975 53.9572C35.75 53.9572 30.27 54.6897 26.25 55.7897C25.1525 56.1497 24.7875 56.1497 24.0575 56.1497C21.865 56.1497 20.4025 54.3247 20.4025 52.4972C20.4025 50.3047 21.5 49.2072 23.325 48.4797C28.805 47.0197 34.2875 45.9222 41.96 45.9222C54.385 45.9222 66.4425 48.8472 75.9425 54.6897C77.4025 55.4172 78.135 56.8822 78.135 58.3422C78.135 60.5372 76.6725 62.3622 74.48 62.3622ZM80.3275 47.7522C79.2325 47.7522 78.865 47.3872 77.77 47.0247C69 41.9072 55.8475 38.9822 43.0575 38.9822C36.48 38.9822 29.9025 39.7147 24.0575 41.1747C23.325 41.1747 22.595 41.5397 21.5 41.5397C18.9425 41.9047 17.115 39.7147 17.115 37.1547C17.115 34.5972 18.5775 33.1372 20.4025 32.7697C27.345 30.5772 34.6525 29.8447 43.0575 29.8447C56.9425 29.8447 71.5575 32.7697 82.52 38.9797C83.98 39.7122 85.075 41.1722 85.075 43.3647C84.7125 45.9222 82.8825 47.7522 80.3275 47.7522Z" fill="white"/>
<defs>
<linearGradient id="paint0_linear_21_558" x1="50" y1="-21.9125" x2="50" y2="130.775" gradientUnits="userSpaceOnUse">
<stop stop-color="#4CAF50"/>
<stop offset="0.489" stop-color="#4AAF50"/>
<stop offset="0.665" stop-color="#43AD50"/>
<stop offset="0.79" stop-color="#38AA50"/>
<stop offset="0.892" stop-color="#27A550"/>
<stop offset="0.978" stop-color="#11A050"/>
<stop offset="1" stop-color="#0A9E50"/>
</linearGradient>
</defs>
</svg>
