<svg width="91" height="66" viewBox="0 0 91 66" fill="none" xmlns="http://www.w3.org/2000/svg">
<path d="M0.5 0.599976V58.2H90.5V0.599976H0.5ZM37.625 17.8687C37.8219 17.8687 38.068 17.939 38.2437 18.0375L58.0437 29.5125C58.3953 29.7164 58.6062 30.0609 58.6062 30.4687C58.6062 30.8765 58.3953 31.2773 58.0437 31.4812L38.2437 42.9562C38.068 43.0617 37.8219 43.0687 37.625 43.0687C37.4281 43.0687 37.2383 43.0617 37.0625 42.9562C36.7109 42.7523 36.5 42.3515 36.5 41.9437V19.05C36.5 18.6422 36.7039 18.2414 37.0625 18.0375C37.2383 17.939 37.4281 17.8687 37.625 17.8687ZM20.3 61.8C19.3086 61.8 18.5 62.6015 18.5 63.6C18.5 64.5984 19.3086 65.4 20.3 65.4H70.7C71.6984 65.4 72.5 64.5984 72.5 63.6C72.5 62.6015 71.6984 61.8 70.7 61.8H20.3Z" fill="white"/>
</svg>
