<svg width="82" height="78" viewBox="0 0 82 78" fill="none" xmlns="http://www.w3.org/2000/svg">
<path d="M31.6784 0.457051C31.6784 0.457051 25.9937 0.324301 22.7897 3.7383C19.5857 7.1493 20.0768 12.8145 20.0768 12.8145C20.0768 12.8145 25.7615 12.9531 28.9655 9.53908C32.1695 6.12508 31.6784 0.457051 31.6784 0.457051ZM49.6549 0.457051C49.6549 0.457051 49.1638 6.12808 52.3678 9.53908C55.5688 12.9501 61.2506 12.8145 61.2506 12.8145C61.2506 12.8145 61.7476 7.1493 58.5436 3.7383C55.3396 0.324301 49.6549 0.457051 49.6549 0.457051ZM11.8327 4.31252C11.8327 4.31252 8.06973 8.57763 8.62173 13.2246C9.17373 17.8716 13.8249 21.1406 13.8249 21.1406C13.8249 21.1406 13.8453 21.1143 13.8483 21.1113C14.8293 21.9213 18.4426 24.648 22.4206 24.252C27.0766 23.79 30.4362 19.1953 30.4362 19.1953C30.4362 19.1953 26.2387 15.3583 21.5827 15.8203C18.9307 16.0843 16.7294 17.6788 15.3014 19.0078C16.2854 17.3248 17.3448 14.8477 17.0358 12.2227C16.4838 7.57568 11.8327 4.31252 11.8327 4.31252ZM69.5006 4.31252C69.5006 4.31252 64.8495 7.58153 64.2975 12.2285C63.9855 14.8535 65.0449 17.3248 66.0319 19.0078C64.6039 17.6758 62.4026 16.0843 59.7506 15.8203C55.0946 15.3583 50.8971 19.2012 50.8971 19.2012C50.8971 19.2012 54.2568 23.7958 58.9128 24.2578C62.8877 24.6538 66.504 21.9213 67.485 21.1113C67.488 21.1143 67.5085 21.1465 67.5085 21.1465C67.5085 21.1465 72.1596 17.8716 72.7116 13.2246C73.2636 8.57463 69.5006 4.31252 69.5006 4.31252ZM2.73306 21.8262C2.73306 21.8262 0.426344 27.0259 2.34634 31.2949C4.26634 35.5639 9.68228 37.2832 9.68228 37.2832C9.68228 37.2832 9.70272 37.2336 9.70572 37.2246C10.9237 37.5966 15.3069 38.7192 18.8229 36.8262C22.9419 34.6062 24.2721 29.0801 24.2721 29.0801C24.2721 29.0801 18.9254 27.1472 14.8034 29.3672C12.8114 30.4412 11.4835 32.2852 10.6315 33.9082C10.9345 32.1112 10.9959 29.8663 10.0749 27.8203C8.15786 23.5513 2.73306 21.8262 2.73306 21.8262ZM78.6003 21.8262C78.6003 21.8262 73.1755 23.5513 71.2585 27.8203C70.3405 29.8633 70.4018 32.1112 70.7018 33.9082C69.8498 32.2852 68.5219 30.4412 66.5299 29.3672C62.4079 27.1472 57.0612 29.0801 57.0612 29.0801C57.0612 29.0801 58.3914 34.612 62.5104 36.8321C66.0264 38.725 70.4096 37.6025 71.6276 37.2305C71.6306 37.2395 71.651 37.2891 71.651 37.2891C71.651 37.2891 77.07 35.5639 78.987 31.2949C80.907 27.0259 78.6003 21.8262 78.6003 21.8262ZM22.2155 39.0821C22.2155 39.0821 16.6595 40.2788 14.3405 44.3438C13.2215 46.3028 13.0718 48.5666 13.2038 50.3906C12.5168 48.7016 11.3839 46.7609 9.52994 45.5039C5.65394 42.8789 0.13736 44.2617 0.13736 44.2617C0.13736 44.2617 0.901984 49.8956 4.77798 52.5176C8.65399 55.1426 14.1764 53.7656 14.1764 53.7656C14.1764 53.7656 14.1677 53.7189 14.1647 53.7129C15.3797 53.3889 19.7139 52.0249 21.6999 48.5449C24.0159 44.4799 22.2155 39.0821 22.2155 39.0821ZM59.1178 39.0821C59.1178 39.0821 57.3203 44.4799 59.6393 48.5449C61.6253 52.0249 65.9595 53.3918 67.1745 53.7188C67.1745 53.7248 67.1628 53.7656 67.1628 53.7656C67.1628 53.7656 72.6852 55.1485 76.5612 52.5235C80.4372 49.8985 81.2018 44.2617 81.2018 44.2617C81.2018 44.2617 75.6764 42.8789 71.8034 45.5039C69.9494 46.7609 68.8194 48.7016 68.1354 50.3906C68.2704 48.5666 68.1177 46.3028 66.9987 44.3438C64.6797 40.2788 59.1178 39.0821 59.1178 39.0821ZM26.6803 50.1621C26.6803 50.1621 21.4872 52.4806 20.0592 56.9356C19.2462 59.4736 19.8301 62.122 20.4811 63.961C19.3291 62.389 17.4877 60.4309 14.9557 59.6719C10.4737 58.3279 5.62173 61.2949 5.62173 61.2949C5.62173 61.2949 8.03622 66.4431 12.5182 67.7871C16.4179 68.9565 20.4044 66.9623 21.4245 66.3985C23.4213 68.4775 25.8081 69.874 28.362 70.8223C27.4873 71.499 26.7135 72.3118 26.1588 73.3594C26.0868 73.4702 26.0223 73.5857 25.9655 73.7051C25.9568 73.7238 25.9447 73.739 25.9362 73.7578C25.7586 74.1479 25.6667 74.5715 25.6667 75C25.6667 75.7957 25.9827 76.5587 26.5453 77.1213C27.1079 77.6839 27.871 78 28.6667 78C29.2425 78 29.8061 77.8342 30.2903 77.5225C30.7745 77.2108 31.1587 76.7663 31.3971 76.2422C31.6863 75.606 32.4812 74.9825 34.485 74.4141C36.0777 73.9623 38.2899 73.6533 40.6667 73.336C43.0434 73.6533 45.2557 73.9623 46.8483 74.4141C48.8521 74.9825 49.647 75.606 49.9362 76.2422H49.942C50.1801 76.7654 50.5634 77.2093 51.0464 77.5209C51.5294 77.8325 52.0918 77.9988 52.6667 78C53.4623 78 54.2254 77.6839 54.788 77.1213C55.3506 76.5587 55.6667 75.7957 55.6667 75C55.6647 74.571 55.5708 74.1474 55.3913 73.7578H55.3971C55.3886 73.739 55.3765 73.7238 55.3678 73.7051C55.3099 73.5796 55.2433 73.4582 55.1686 73.3418C54.6148 72.3017 53.8415 71.4955 52.9713 70.8223C55.5252 69.874 57.912 68.4775 59.9088 66.3985C60.9223 66.9593 64.9106 68.9638 68.8151 67.793C73.2971 66.449 75.7174 61.3008 75.7174 61.3008C75.7174 61.3008 70.8655 58.3338 66.3835 59.6777C63.8515 60.4368 62.0042 62.3948 60.8522 63.9668C61.5032 62.1278 62.0871 59.4706 61.2741 56.9356C59.8461 52.4776 54.653 50.1621 54.653 50.1621C54.653 50.1621 51.7806 55.0704 53.2116 59.5254C53.6143 60.7801 54.3204 61.8443 55.1159 62.7539L55.11 62.7598C52.0514 65.4213 47.0046 66.4273 41.6803 67.1367C41.3395 67.1821 41.0068 67.2275 40.6667 67.2715C40.3265 67.2275 39.9938 67.1821 39.653 67.1367C34.3287 66.4273 29.276 65.4155 26.2174 62.7539C27.0144 61.8435 27.7253 60.776 28.1276 59.5195C29.5556 55.0675 26.6803 50.1621 26.6803 50.1621Z" fill="white"/>
</svg>
