<svg width="84" height="84" viewBox="0 0 84 84" fill="none" xmlns="http://www.w3.org/2000/svg">
<path d="M41.8334 0.599976C19.0093 0.599976 0.43335 19.176 0.43335 42C0.43335 64.824 19.0093 83.4 41.8334 83.4C64.6574 83.4 83.2334 64.824 83.2334 42C83.2334 19.176 64.6574 0.599976 41.8334 0.599976ZM68.8334 51H60.7334C57.2594 51 54.4334 48.174 54.4334 44.7V39.3C54.4334 37.806 53.2274 36.6 51.7334 36.6C50.2394 36.6 49.0334 37.806 49.0334 39.3V53.7C49.0334 57.174 46.2074 60 42.7334 60C39.2593 60 36.4333 57.174 36.4333 53.7V30.3C36.4333 28.806 35.2274 27.6 33.7334 27.6C32.2394 27.6 31.0333 28.806 31.0333 30.3V44.7C31.0333 48.174 28.2073 51 24.7334 51H14.8334V47.4H24.7334C26.2274 47.4 27.4334 46.194 27.4334 44.7V30.3C27.4334 26.826 30.2594 24 33.7334 24C37.2074 24 40.0334 26.826 40.0334 30.3V53.7C40.0334 55.194 41.2393 56.4 42.7334 56.4C44.2274 56.4 45.4333 55.194 45.4333 53.7V39.3C45.4333 35.826 48.2593 33 51.7334 33C55.2074 33 58.0334 35.826 58.0334 39.3V44.7C58.0334 46.194 59.2394 47.4 60.7334 47.4H68.8334V51Z" fill="white"/>
</svg>
