<svg width="24" height="24" viewBox="0 0 24 24" fill="none" xmlns="http://www.w3.org/2000/svg">
<path d="M0.566625 8.34782C0.199031 9.49944 -4.68667e-05 10.7263 8.276e-09 11.9998C-4.68667e-05 13.2734 0.199078 14.5004 0.566672 15.652L12 16.1738L23.4333 15.6521C23.8009 14.5004 24 13.2734 24 11.9999C24 10.7263 23.8009 9.49944 23.4333 8.34777L12 7.82605L0.566625 8.34782Z" fill="#F0F0F0"/>
<path d="M23.4333 8.34789L12 7.82617L0.566622 8.34789C0.457685 8.68933 0.363888 9.03747 0.285278 9.39138H23.7145C23.636 9.03742 23.5423 8.68923 23.4333 8.34789Z" fill="#D80027"/>
<path d="M0.285339 14.6086C0.363855 14.9625 0.457652 15.3106 0.566589 15.652L0.567714 15.652L11.9999 16.1738L23.4332 15.652C23.5421 15.3106 23.6359 14.9625 23.7145 14.6086H0.285339Z" fill="#D80027"/>
<path d="M11.9999 23.9998C17.3538 23.9998 21.888 20.4934 23.4333 15.652H0.56665C2.11188 20.4934 6.6462 23.9998 11.9999 23.9998Z" fill="#6DA544"/>
<path d="M12 0.000122071C6.6462 0.000168946 2.11198 3.50656 0.56665 8.34795L23.4333 8.348C21.8881 3.50651 17.3539 7.51958e-05 12 0.000122071Z" fill="#338AF3"/>
<path d="M5.48369 4.95666C5.48369 3.83274 6.27358 2.89384 7.32841 2.6635C7.16631 2.62806 6.99808 2.60889 6.8253 2.60889C5.52865 2.60889 4.47748 3.66001 4.47748 4.95671C4.47748 6.25341 5.52855 7.30454 6.8253 7.30454C6.99808 7.30454 7.16627 7.28532 7.32841 7.24993C6.27363 7.01949 5.48369 6.08058 5.48369 4.95666Z" fill="#F0F0F0"/>
<path d="M8.71604 6.02374L8.87494 6.51288H9.38926L8.97319 6.81523L9.1321 7.30437L8.71604 7.00207L8.29988 7.30437L8.45883 6.81523L8.04272 6.51288H8.55704L8.71604 6.02374Z" fill="#F0F0F0"/>
<path d="M10.3577 6.02374L10.5166 6.51288H11.0309L10.6148 6.81523L10.7738 7.30437L10.3577 7.00207L9.94156 7.30437L10.1005 6.81523L9.68445 6.51288H10.1987L10.3577 6.02374Z" fill="#F0F0F0"/>
<path d="M11.9992 6.02374L12.1581 6.51288H12.6725L12.2564 6.81523L12.4153 7.30437L11.9992 7.00207L11.5831 7.30437L11.7421 6.81523L11.3259 6.51288H11.8403L11.9992 6.02374Z" fill="#F0F0F0"/>
<path d="M13.6408 6.02374L13.7998 6.51288H14.3141L13.898 6.81523L14.057 7.30437L13.6408 7.00207L13.2247 7.30437L13.3837 6.81523L12.9675 6.51288H13.4818L13.6408 6.02374Z" fill="#F0F0F0"/>
<path d="M15.2824 6.02374L15.4414 6.51288H15.9557L15.5396 6.81523L15.6986 7.30437L15.2824 7.00207L14.8663 7.30437L15.0253 6.81523L14.6092 6.51288H15.1235L15.2824 6.02374Z" fill="#F0F0F0"/>
<path d="M10.3577 4.31622L10.5166 4.80532H11.0309L10.6148 5.10771L10.7738 5.5968L10.3577 5.2945L9.94156 5.5968L10.1005 5.10771L9.68445 4.80532H10.1987L10.3577 4.31622Z" fill="#F0F0F0"/>
<path d="M11.9992 4.31622L12.1581 4.80532H12.6725L12.2564 5.10771L12.4153 5.5968L11.9992 5.2945L11.5831 5.5968L11.7421 5.10771L11.3259 4.80532H11.8403L11.9992 4.31622Z" fill="#F0F0F0"/>
<path d="M13.6408 4.31622L13.7998 4.80532H14.3141L13.898 5.10771L14.057 5.5968L13.6408 5.2945L13.2247 5.5968L13.3837 5.10771L12.9675 4.80532H13.4818L13.6408 4.31622Z" fill="#F0F0F0"/>
<path d="M15.2824 4.31622L15.4414 4.80532H15.9557L15.5396 5.10771L15.6986 5.5968L15.2824 5.2945L14.8663 5.5968L15.0253 5.10771L14.6092 4.80532H15.1235L15.2824 4.31622Z" fill="#F0F0F0"/>
<path d="M11.9992 2.60876L12.1581 3.09795H12.6725L12.2564 3.40025L12.4153 3.88944L11.9992 3.58714L11.5831 3.88944L11.7421 3.40025L11.3259 3.09795H11.8403L11.9992 2.60876Z" fill="#F0F0F0"/>
<path d="M13.6408 2.60876L13.7998 3.09795H14.3141L13.898 3.40025L14.057 3.88944L13.6408 3.58714L13.2247 3.88944L13.3837 3.40025L12.9675 3.09795H13.4818L13.6408 2.60876Z" fill="#F0F0F0"/>
<path d="M15.2824 2.60876L15.4414 3.09795H15.9557L15.5396 3.40025L15.6986 3.88944L15.2824 3.58714L14.8663 3.88944L15.0253 3.40025L14.6092 3.09795H15.1235L15.2824 2.60876Z" fill="#F0F0F0"/>
</svg>
