<svg width="305" height="272" viewBox="0 0 305 272" fill="none" xmlns="http://www.w3.org/2000/svg">
<path d="M52.0521 120V0H76.7645L84.7146 50.025L93.7521 110.213H98.8146L97.2396 49.8L96.9771 0H99.4146V49.8L100.84 112.162H92.1021L74.777 1.94999H54.4146V120H52.0521ZM56.8146 120L56.8895 68.7375L56.4771 3.89999H72.827L90.3396 114.113H102.752L101.852 49.8L101.965 0H104.365L104.252 49.8L104.702 116.1H88.4271L70.8395 5.88749H58.3895L59.2896 68.7375L59.1771 120H56.8146ZM61.7271 120V68.7375L60.3771 7.8375H69.077L86.402 118.05H106.54L106.765 0H109.127L108.902 120H84.2645L76.1646 68.2875L67.4646 9.7875H62.4771L63.7521 68.7375L64.0895 120H61.7271Z" fill="white"/>
<path d="M127.345 120V0H167.095V2.06249H129.708V117.938H167.095V120H127.345ZM136.833 111.75V62.7H165.595V64.7625H139.233V109.688H167.095V111.75H136.833ZM132.108 115.875V4.125H167.095V6.1875H134.47V58.575H165.595V60.6375H134.47V113.812H167.095V115.875H132.108ZM136.833 56.5125V8.24999H167.095V10.3125H139.233V54.45H165.595V56.5125H136.833Z" fill="white"/>
<path d="M184.647 120L176.51 0H178.872L186.785 118.05H206.322L214.61 8.4H223.535L231.747 118.05H251.247L259.422 0H261.785L253.422 120H229.685L221.472 10.35H216.672L208.385 120H184.647ZM188.472 116.1L185.397 64.95L181.272 0H183.71L187.685 63.1875L190.685 114.113H202.46L205.91 63.75L210.56 4.4625H227.585L232.235 64.5375L235.572 114.113H247.347L250.422 64.2L254.585 0H256.985L252.672 65.925L249.56 116.1H233.51L230.172 66.3L225.597 6.45H212.585L207.935 65.6625L204.522 116.1H188.472ZM192.447 112.162L189.71 61.875L185.922 0H188.285L191.885 60.5625L194.435 110.213H198.672L201.822 60.675L206.21 0.562495H231.935L236.322 61.5L239.397 110.213H243.597L246.222 61.35L249.972 0H252.335L248.36 62.775L245.622 112.162H237.447L234.335 63L229.91 2.5125H208.235L203.847 62.2125L200.622 112.162H192.447Z" fill="white"/>
<path d="M13.6931 270L0.0805664 150H2.48057L15.7931 268.05H35.3306L48.6431 150H51.0431L37.4306 270H13.6931ZM17.5556 266.1L12.6431 217.05L4.88057 150H7.31807L14.8556 215.662L19.6931 264.112H31.4306L36.2681 215.662L43.8056 150H46.2431L38.4806 217.05L33.5306 266.1H17.5556ZM21.4181 262.163L16.9931 214.8L9.86806 150H12.2306L19.0931 213.75L23.3306 260.212H27.7931L31.9931 213.75L38.8931 150H41.2556L34.1306 214.8L29.7056 262.163H21.4181Z" fill="white"/>
<path d="M73.8442 270V150H76.2442V270H73.8442ZM64.3567 270V150H66.7192V270H64.3567ZM69.1192 270V150H71.4817V270H69.1192Z" fill="white"/>
<path d="M115.683 271.013C107.833 271.013 102.058 269.45 98.3575 266.325C94.6575 263.2 92.6825 257.863 92.4325 250.312C92.3575 247.537 92.3075 244.85 92.2825 242.25C92.2825 239.65 92.3075 237.075 92.3575 234.525C92.4075 231.95 92.5075 229.325 92.6575 226.65H95.02C94.92 228.775 94.8325 231.025 94.7575 233.4C94.6825 235.775 94.645 238.35 94.645 241.125C94.67 243.875 94.7325 246.912 94.8325 250.237C95.0575 257.087 96.8075 261.95 100.083 264.825C103.383 267.7 108.583 269.138 115.683 269.138C122.783 269.138 127.92 267.675 131.095 264.75C134.27 261.825 135.995 256.987 136.27 250.237C136.37 248.162 136.433 246.025 136.458 243.825C136.483 241.625 136.483 239.388 136.458 237.113C136.458 234.813 136.408 232.538 136.308 230.288C136.083 223.688 134.47 218.7 131.47 215.325C128.495 211.925 124.383 209.525 119.133 208.125L111.07 205.95C108.97 205.375 107.245 204.55 105.895 203.475C104.545 202.375 103.533 200.775 102.858 198.675C102.208 196.55 101.833 193.675 101.733 190.05C101.658 186.7 101.633 183.388 101.658 180.113C101.708 176.813 101.77 173.362 101.845 169.762C101.945 165.062 103.07 161.7 105.22 159.675C107.37 157.625 110.82 156.6 115.57 156.6C119.845 156.6 123.058 157.575 125.208 159.525C127.383 161.475 128.545 164.937 128.695 169.912C128.77 172.537 128.795 175.787 128.77 179.662C128.745 183.512 128.683 187.5 128.583 191.625H126.22C126.32 187.45 126.37 183.487 126.37 179.738C126.395 175.988 126.37 172.738 126.295 169.988C126.195 165.837 125.295 162.887 123.595 161.137C121.92 159.362 119.245 158.475 115.57 158.475C111.745 158.475 108.92 159.337 107.095 161.062C105.27 162.787 104.308 165.737 104.208 169.912C104.133 173.287 104.083 176.662 104.058 180.037C104.033 183.387 104.045 186.712 104.095 190.012C104.17 193.312 104.495 195.875 105.07 197.7C105.645 199.525 106.483 200.862 107.583 201.712C108.683 202.562 110.033 203.212 111.633 203.662L119.658 205.875C125.658 207.525 130.258 210.25 133.458 214.05C136.683 217.825 138.433 223.212 138.708 230.212C138.783 232.312 138.82 234.525 138.82 236.85C138.845 239.175 138.845 241.488 138.82 243.788C138.795 246.088 138.733 248.262 138.633 250.312C138.333 257.713 136.408 263.012 132.858 266.212C129.308 269.412 123.583 271.013 115.683 271.013ZM115.683 267.225C109.383 267.225 104.77 265.925 101.845 263.325C98.945 260.7 97.395 256.313 97.195 250.163C97.12 247.338 97.07 244.65 97.045 242.1C97.045 239.525 97.07 236.975 97.12 234.45C97.17 231.9 97.245 229.3 97.345 226.65H99.745C99.62 229.075 99.5325 231.525 99.4825 234C99.4325 236.45 99.4075 239 99.4075 241.65C99.4325 244.275 99.4825 247.087 99.5575 250.087C99.7575 255.562 101.108 259.475 103.608 261.825C106.133 264.15 110.158 265.312 115.683 265.312C121.133 265.312 125.083 264.125 127.533 261.75C129.983 259.375 131.308 255.487 131.508 250.087C131.608 247.962 131.67 245.825 131.695 243.675C131.72 241.5 131.72 239.313 131.695 237.113C131.695 234.913 131.658 232.7 131.583 230.475C131.458 226.9 130.858 223.937 129.783 221.587C128.733 219.212 127.22 217.312 125.245 215.887C123.295 214.462 120.92 213.375 118.12 212.625L109.945 210.45C107.295 209.75 105.02 208.712 103.12 207.337C101.22 205.937 99.745 203.887 98.695 201.188C97.645 198.487 97.07 194.825 96.97 190.2C96.92 188.05 96.895 185.825 96.895 183.525C96.895 181.225 96.9075 178.912 96.9325 176.587C96.9825 174.262 97.0325 171.95 97.0825 169.65C97.2325 163.6 98.745 159.275 101.62 156.675C104.52 154.075 109.17 152.775 115.57 152.775C121.52 152.775 125.933 154.037 128.808 156.562C131.708 159.088 133.245 163.5 133.42 169.8C133.495 172.35 133.52 175.612 133.495 179.587C133.495 183.562 133.445 187.575 133.345 191.625H130.945C131.07 187.475 131.133 183.462 131.133 179.587C131.158 175.687 131.133 172.437 131.058 169.837C130.883 164.162 129.52 160.225 126.97 158.025C124.445 155.8 120.645 154.688 115.57 154.688C109.995 154.688 105.945 155.85 103.42 158.175C100.92 160.475 99.595 164.325 99.445 169.725C99.37 172.9 99.32 176.312 99.295 179.962C99.27 183.587 99.295 186.975 99.37 190.125C99.47 194.225 99.9325 197.475 100.758 199.875C101.608 202.275 102.845 204.112 104.47 205.387C106.095 206.637 108.108 207.588 110.508 208.238L118.608 210.375C123.283 211.625 126.945 213.75 129.595 216.75C132.27 219.75 133.72 224.3 133.945 230.4C134.045 232.825 134.095 235.137 134.095 237.337C134.12 239.512 134.108 241.65 134.058 243.75C134.033 245.825 133.97 247.963 133.87 250.163C133.645 256.188 132.133 260.537 129.333 263.212C126.533 265.887 121.983 267.225 115.683 267.225ZM115.683 263.4C110.983 263.4 107.545 262.375 105.37 260.325C103.22 258.25 102.083 254.813 101.958 250.013C101.883 247.438 101.82 244.912 101.77 242.438C101.745 239.962 101.758 237.438 101.808 234.863C101.883 232.263 101.983 229.525 102.108 226.65H104.433C104.333 229.6 104.258 232.3 104.208 234.75C104.158 237.175 104.145 239.588 104.17 241.988C104.195 244.388 104.245 247.05 104.32 249.975C104.445 254.125 105.395 257.087 107.17 258.862C108.97 260.637 111.808 261.525 115.683 261.525C119.458 261.525 122.195 260.625 123.895 258.825C125.62 257.025 126.57 254.075 126.745 249.975C126.845 247.55 126.908 245.287 126.933 243.188C126.983 241.063 126.995 238.987 126.97 236.962C126.97 234.937 126.92 232.838 126.82 230.663C126.72 227.863 126.283 225.562 125.508 223.762C124.758 221.962 123.683 220.537 122.283 219.487C120.883 218.437 119.145 217.637 117.07 217.087L108.858 214.912C105.308 213.962 102.308 212.587 99.8575 210.787C97.4325 208.987 95.5825 206.45 94.3075 203.175C93.0575 199.9 92.37 195.612 92.245 190.312C92.17 187.362 92.1325 184.137 92.1325 180.637C92.1575 177.112 92.22 173.412 92.32 169.537C92.52 162.062 94.4575 156.775 98.1325 153.675C101.833 150.55 107.645 148.987 115.57 148.987C122.945 148.987 128.495 150.487 132.22 153.488C135.97 156.488 137.958 161.862 138.183 169.613C138.258 172.088 138.283 175.287 138.258 179.212C138.258 183.112 138.195 187.25 138.07 191.625H135.708C135.833 187.575 135.895 183.587 135.895 179.662C135.92 175.712 135.895 172.4 135.82 169.725C135.62 162.75 133.87 157.862 130.57 155.062C127.295 152.263 122.295 150.863 115.57 150.863C108.37 150.863 103.133 152.3 99.8575 155.175C96.6075 158.05 94.895 162.863 94.72 169.613C94.62 172.537 94.5575 175.987 94.5325 179.962C94.5075 183.937 94.5325 187.375 94.6075 190.275C94.7075 194.975 95.295 198.812 96.37 201.787C97.445 204.762 99.0575 207.1 101.208 208.8C103.358 210.5 106.095 211.8 109.42 212.7L117.595 214.875C119.895 215.45 121.883 216.337 123.558 217.537C125.258 218.712 126.595 220.35 127.57 222.45C128.545 224.525 129.083 227.225 129.183 230.55C129.258 232.675 129.308 234.812 129.333 236.962C129.358 239.112 129.358 241.275 129.333 243.45C129.308 245.625 129.245 247.813 129.145 250.013C128.945 254.788 127.808 258.213 125.733 260.288C123.658 262.363 120.308 263.4 115.683 263.4Z" fill="white"/>
<path d="M164.225 270V150H166.625V270H164.225ZM154.738 270V150H157.1V270H154.738ZM159.5 270V150H161.863V270H159.5Z" fill="white"/>
<path d="M207.263 271.013C199.113 271.013 193.238 269.363 189.638 266.062C186.063 262.737 184.201 257.263 184.051 249.638C183.951 242.088 183.863 235.075 183.788 228.6C183.738 222.1 183.713 215.8 183.713 209.7C183.713 203.575 183.738 197.325 183.788 190.95C183.863 184.575 183.951 177.725 184.051 170.4C184.201 162.75 186.063 157.275 189.638 153.975C193.238 150.65 199.113 148.987 207.263 148.987C215.213 148.987 221.013 150.625 224.663 153.9C228.338 157.15 230.263 162.638 230.438 170.363C230.563 176.888 230.663 183.287 230.738 189.562C230.838 195.837 230.888 202.162 230.888 208.537C230.888 214.912 230.851 221.487 230.776 228.262C230.701 235.037 230.588 242.175 230.438 249.675C230.263 257.525 228.301 263.05 224.551 266.25C220.826 269.425 215.063 271.013 207.263 271.013ZM207.263 269.062C214.238 269.062 219.413 267.625 222.788 264.75C226.163 261.85 227.913 256.8 228.038 249.6C228.188 242.725 228.288 236.112 228.338 229.762C228.413 223.387 228.451 217.062 228.451 210.787C228.476 204.512 228.451 198.062 228.376 191.438C228.326 184.812 228.213 177.812 228.038 170.437C227.913 163.337 226.188 158.312 222.863 155.362C219.538 152.412 214.338 150.938 207.263 150.938C199.938 150.938 194.676 152.462 191.476 155.512C188.276 158.537 186.601 163.512 186.451 170.437C186.351 176.462 186.263 182.375 186.188 188.175C186.138 193.975 186.101 199.962 186.076 206.137C186.076 212.312 186.101 218.95 186.151 226.05C186.201 233.15 186.301 241 186.451 249.6C186.551 256.8 188.301 261.85 191.701 264.75C195.101 267.625 200.288 269.062 207.263 269.062ZM207.263 267.112C200.813 267.112 196.151 265.762 193.276 263.062C190.426 260.338 188.938 255.85 188.813 249.6C188.713 242.075 188.626 235.075 188.551 228.6C188.501 222.1 188.476 215.8 188.476 209.7C188.476 203.575 188.501 197.325 188.551 190.95C188.626 184.575 188.713 177.737 188.813 170.437C188.938 164.162 190.426 159.675 193.276 156.975C196.126 154.25 200.788 152.887 207.263 152.887C213.513 152.887 218.101 154.212 221.026 156.862C223.976 159.512 225.526 164.062 225.676 170.512C225.801 176.687 225.901 182.9 225.976 189.15C226.076 195.4 226.126 201.763 226.126 208.238C226.126 214.688 226.088 221.337 226.013 228.188C225.938 235.037 225.826 242.162 225.676 249.562C225.551 256.088 223.976 260.65 220.951 263.25C217.926 265.825 213.363 267.112 207.263 267.112ZM207.263 265.125C212.463 265.125 216.401 264 219.076 261.75C221.776 259.5 223.188 255.412 223.313 249.487C223.438 242.737 223.526 236.15 223.576 229.725C223.651 223.3 223.688 216.9 223.688 210.525C223.713 204.15 223.688 197.675 223.613 191.1C223.563 184.5 223.463 177.65 223.313 170.55C223.188 164.725 221.813 160.662 219.188 158.362C216.588 156.037 212.613 154.875 207.263 154.875C201.638 154.875 197.576 156.087 195.076 158.512C192.601 160.912 191.313 164.912 191.213 170.512C191.088 176.987 190.988 183.35 190.913 189.6C190.863 195.825 190.826 202.112 190.801 208.462C190.801 214.812 190.826 221.375 190.876 228.15C190.951 234.9 191.063 242.037 191.213 249.562C191.313 255.113 192.601 259.1 195.076 261.525C197.551 263.925 201.613 265.125 207.263 265.125ZM207.263 263.175C202.488 263.175 199.026 262.112 196.876 259.987C194.751 257.862 193.651 254.325 193.576 249.375C193.426 240.725 193.326 232.087 193.276 223.462C193.226 214.837 193.226 206.138 193.276 197.363C193.326 188.588 193.426 179.65 193.576 170.55C193.651 165.4 194.826 161.825 197.101 159.825C199.376 157.825 202.763 156.825 207.263 156.825C211.888 156.825 215.288 157.863 217.463 159.938C219.663 161.988 220.813 165.537 220.913 170.587C221.063 176.987 221.176 183.3 221.251 189.525C221.326 195.75 221.363 202.037 221.363 208.387C221.363 214.737 221.326 221.3 221.251 228.075C221.201 234.825 221.088 241.938 220.913 249.413C220.813 254.538 219.651 258.113 217.426 260.138C215.201 262.163 211.813 263.175 207.263 263.175ZM207.263 261.225C211.038 261.225 213.838 260.337 215.663 258.562C217.513 256.787 218.476 253.675 218.551 249.225C218.651 242.675 218.726 236.275 218.776 230.025C218.851 223.75 218.888 217.462 218.888 211.162C218.888 204.837 218.863 198.362 218.813 191.737C218.763 185.087 218.676 178.112 218.551 170.812C218.476 166.212 217.488 163.062 215.588 161.363C213.688 159.638 210.913 158.775 207.263 158.775C203.463 158.775 200.651 159.662 198.826 161.437C197.001 163.187 196.038 166.262 195.938 170.662C195.813 178.962 195.713 187.262 195.638 195.562C195.588 203.863 195.576 212.425 195.601 221.25C195.651 230.075 195.763 239.463 195.938 249.413C196.038 253.613 196.963 256.637 198.713 258.487C200.488 260.312 203.338 261.225 207.263 261.225Z" fill="white"/>
<path d="M247.902 270V150H272.614L280.564 200.025L289.602 260.212H294.664L293.089 199.8L292.827 150H295.264V199.8L296.689 262.163H287.952L270.627 151.95H250.264V270H247.902ZM252.664 270L252.739 218.738L252.327 153.9H268.677L286.189 264.112H298.602L297.702 199.8L297.814 150H300.214L300.102 199.8L300.552 266.1H284.277L266.689 155.887H254.239L255.139 218.738L255.027 270H252.664ZM257.577 270V218.738L256.227 157.837H264.927L282.252 268.05H302.389L302.614 150H304.977L304.752 270H280.114L272.014 218.287L263.314 159.787H258.327L259.602 218.738L259.939 270H257.577Z" fill="white"/>
</svg>
